<?xml version="1.0" encoding="utf-8"?>
<!-- Generated by IcoMoon.io -->
<!DOCTYPE svg PUBLIC "-//W3C//DTD SVG 1.1//EN" "http://www.w3.org/Graphics/SVG/1.1/DTD/svg11.dtd">
<svg version="1.1" xmlns="http://www.w3.org/2000/svg" xmlns:xlink="http://www.w3.org/1999/xlink" width="512" height="512" viewBox="0 0 512 512">
<g>
</g>
	<path d="M495.104 346.726l-81.51-54.835h-50.253l87.040 66.765h-90.752c-2.611 0-4.941 1.331-6.144 3.405l-20.889 57.216h-153.19l-20.915-57.216c-1.152-2.074-3.533-3.405-6.144-3.405h-90.727l87.066-66.765h-50.279l-81.485 54.835c-12.134 7.245-19.379 23.962-16.128 37.094l14.361 78.695c3.251 13.159 17.69 23.936 32.026 23.936h417.613c14.387 0 28.8-10.777 32.051-23.936l14.361-78.695c3.302-13.159-3.968-29.849-16.103-37.094zM389.146 182.323h-84.505v-131.072h-97.28v131.072h-84.48l133.12 124.928 133.146-124.928z" fill="#000000" />
</svg>
